<svg xmlns="http://www.w3.org/2000/svg" 
    aria-hidden="true" 
    style="position:absolute;width:0;height:0;overflow:hidden">
        <defs>
            <symbol id="close" 
                viewBox="0 0 32 32">
                <path d="M32 3.223 28.777 0 16 12.777 3.223 0 0 3.223 12.777 16 0 28.777 3.223 32 16 19.223 28.777 32 32 28.777 19.223 16 32 3.223z"/>
            </symbol>
            <symbol id="icon-burger" viewBox="0 0 47 32">
                 <path d="M0 2.286c0 1.262 1.023 2.286 2.286 2.286h42.667c1.262 0 2.286-1.023 2.286-2.286s-1.023-2.286-2.286-2.286h-42.667c-1.262 0-2.286 1.023-2.286 2.286zM0 16c0 1.262 1.023 2.286 2.286 2.286h42.667c1.262 0 2.286-1.023 2.286-2.286s-1.023-2.286-2.286-2.286h-42.667c-1.262 0-2.286 1.023-2.286 2.286zM0 29.714c0 1.262 1.023 2.286 2.286 2.286h42.667c1.262 0 2.286-1.023 2.286-2.286s-1.023-2.286-2.286-2.286h-42.667c-1.262 0-2.286 1.023-2.286 2.286z">
                 </path>  
            </symbol>
        </defs>
</svg>